<?xml version="1.0" encoding="UTF-8" standalone="no"?>
<!-- Created with Inkscape (http://www.inkscape.org/) -->

<svg
   xmlns:dc="http://purl.org/dc/elements/1.1/"
   xmlns:cc="http://creativecommons.org/ns#"
   xmlns:rdf="http://www.w3.org/1999/02/22-rdf-syntax-ns#"
   xmlns:svg="http://www.w3.org/2000/svg"
   xmlns="http://www.w3.org/2000/svg"
   xmlns:sodipodi="http://sodipodi.sourceforge.net/DTD/sodipodi-0.dtd"
   xmlns:inkscape="http://www.inkscape.org/namespaces/inkscape"
   width="60"
   height="60"
   viewBox="5 8 40 40"
   id="svg2"
   version="1.1"
   inkscape:version="0.48.5 r10040"
   sodipodi:docname="New document 1">
  <defs
     id="defs4" />
  <sodipodi:namedview
     id="base"
     pagecolor="#ffffff"
     bordercolor="#666666"
     borderopacity="1.0"
     inkscape:pageopacity="0.0"
     inkscape:pageshadow="2"
     inkscape:zoom="1.4"
     inkscape:cx="144.8439"
     inkscape:cy="901.06422"
     inkscape:document-units="px"
     inkscape:current-layer="g2996"
     showgrid="false"
     inkscape:window-width="1920"
     inkscape:window-height="1004"
     inkscape:window-x="0"
     inkscape:window-y="31"
     inkscape:window-maximized="1" />
  <metadata
     id="metadata7">
    <rdf:RDF>
      <cc:Work
         rdf:about="">
        <dc:format>image/svg+xml</dc:format>
        <dc:type
           rdf:resource="http://purl.org/dc/dcmitype/StillImage" />
        <dc:title></dc:title>
      </cc:Work>
    </rdf:RDF>
  </metadata>
  <g
     inkscape:label="Layer 1"
     inkscape:groupmode="layer"
     id="layer1">
    <g
       id="g2996">
      <path
         style="fill:#6f8388;fill-opacity:1;stroke:#6f8388;stroke-opacity:1"
         d="M 19.362737,46.036941 C 9.1867071,43.352851 3.4056671,32.996722 6.1587371,22.383362 c 4.8882899,-18.8448397 32.2307899,-18.8448397 37.1190799,0 3.88942,14.994119 -8.87634,27.620289 -23.91508,23.653579 z m 15.20981,-3.82117 c 11.45816,-7.582659 10.14766,-24.663059 -2.35673,-30.716329 -8.83426,-4.2765896 -19.11248,-0.55714 -23.4987299,8.50365 -7.76545,16.04127 10.9215599,32.095469 25.8554599,22.212679 z M 23.718277,21.000632 c 0,-4.33333 0.42222,-7.5 1,-7.5 0.5641,0 1,2.83333 1,6.5 l 0,6.5 6,0 c 3.33333,0 6,0.44444 6,1 0,0.57143 -3,1 -7,1 l -7,0 0,-7.5 z"
         id="path2998"
         inkscape:connector-curvature="0" />
      <path
         style="fill:#a0a0a0;stroke:none"
         d=""
         id="path3014"
         inkscape:connector-curvature="0" />
    </g>
  </g>
</svg>
