<?xml version="1.0" encoding="UTF-8" standalone="no"?>
<svg
   xmlns:dc="http://purl.org/dc/elements/1.1/"
   xmlns:cc="http://creativecommons.org/ns#"
   xmlns:rdf="http://www.w3.org/1999/02/22-rdf-syntax-ns#"
   xmlns:svg="http://www.w3.org/2000/svg"
   xmlns="http://www.w3.org/2000/svg"
   xmlns:sodipodi="http://sodipodi.sourceforge.net/DTD/sodipodi-0.dtd"
   xmlns:inkscape="http://www.inkscape.org/namespaces/inkscape"
   enable-background="new 0 0 64 64"
   height="60"
   id="Layer_1"
   version="1.1"
   viewBox="0 -2 60 60"
   width="60"
   xml:space="preserve"
   inkscape:version="0.48.5 r10040"
   sodipodi:docname="1440591984_speech-bubble-dots-outline.svg"
   inkscape:export-filename="/home/ivars/Clinked/workspace/clinked/clinked-webapp/clinked-webapp-default/src/main/webapp/images/chat.png"
   inkscape:export-xdpi="80.748375"
   inkscape:export-ydpi="80.748375"><metadata
     id="metadata17"><rdf:RDF><cc:Work
         rdf:about=""><dc:format>image/svg+xml</dc:format><dc:type
           rdf:resource="http://purl.org/dc/dcmitype/StillImage" /><dc:title></dc:title></cc:Work></rdf:RDF></metadata><defs
     id="defs15" /><sodipodi:namedview
     pagecolor="#ffffff"
     bordercolor="#666666"
     borderopacity="1"
     objecttolerance="10"
     gridtolerance="10"
     guidetolerance="10"
     inkscape:pageopacity="0"
     inkscape:pageshadow="2"
     inkscape:window-width="1920"
     inkscape:window-height="1004"
     id="namedview13"
     showgrid="false"
     inkscape:zoom="7.2708333"
     inkscape:cx="2.8874464"
     inkscape:cy="15.953147"
     inkscape:window-x="0"
     inkscape:window-y="31"
     inkscape:window-maximized="1"
     inkscape:current-layer="g3" /><g
     id="g3"
     transform="translate(-1.2378223,-1.5243553)"><path
       d="M 51.170349,1.5252808 H 11.179474 c -5.5111458,0 -10.0202648,4.5022142 -10.0202648,10.0049202 v 26.234153 c 0,5.502706 4.509119,10.00492 10.0202648,10.00492 H 20.44446 V 61.235897 L 37.144484,47.769274 h 14.024612 c 5.511146,0 10.020265,-4.502214 10.020265,-10.00492 V 11.530201 C 61.190613,6.027495 56.681494,1.5252808 51.170349,1.5252808 z m 3.757599,36.2390732 c 0,2.0335 -1.72098,3.751845 -3.757599,3.751845 H 37.145736 34.93251 l -1.722233,1.388183 -6.501899,5.243828 v -0.378936 -6.253075 h -6.262665 -9.264987 c -2.0366186,0 -3.757599,-1.718345 -3.757599,-3.751845 V 11.530201 c 0,-2.0334998 1.7209804,-3.7518449 3.757599,-3.7518449 h 39.990875 c 2.036619,0 3.7576,1.7183451 3.7576,3.7518449 v 26.234153 z"
       id="path5"
       inkscape:connector-curvature="0"
       style="fill:#FFFFFF;fill-opacity:1" /><circle
       cx="21.743"
       cy="26.617001"
       r="2.9130001"
       id="circle7"
       sodipodi:cx="21.743"
       sodipodi:cy="26.617001"
       sodipodi:rx="2.9130001"
       sodipodi:ry="2.9130001"
       d="m 24.656,26.617001 c 0,1.608805 -1.304194,2.913 -2.913,2.913 -1.608806,0 -2.913,-1.304195 -2.913,-2.913 0,-1.608806 1.304194,-2.913001 2.913,-2.913001 1.608806,0 2.913,1.304195 2.913,2.913001 z"
       style="fill:#FFFFFF;fill-opacity:1"
       transform="matrix(1.2525331,0,0,1.2506151,-8.9061465,-8.6384678)" /><circle
       cx="32"
       cy="26.617001"
       r="2.9130001"
       id="circle9"
       sodipodi:cx="32"
       sodipodi:cy="26.617001"
       sodipodi:rx="2.9130001"
       sodipodi:ry="2.9130001"
       d="m 34.913,26.617001 c 0,1.608805 -1.304194,2.913 -2.913,2.913 -1.608806,0 -2.913,-1.304195 -2.913,-2.913 0,-1.608806 1.304194,-2.913001 2.913,-2.913001 1.608806,0 2.913,1.304195 2.913,2.913001 z"
       style="fill:#FFFFFF;fill-opacity:1"
       transform="matrix(1.2525331,0,0,1.2506151,-8.9061465,-8.6384678)" /><circle
       cx="42.256001"
       cy="26.617001"
       r="2.9130001"
       id="circle11"
       sodipodi:cx="42.256001"
       sodipodi:cy="26.617001"
       sodipodi:rx="2.9130001"
       sodipodi:ry="2.9130001"
       d="m 45.169001,26.617001 c 0,1.608805 -1.304195,2.913 -2.913,2.913 -1.608806,0 -2.913001,-1.304195 -2.913001,-2.913 0,-1.608806 1.304195,-2.913001 2.913001,-2.913001 1.608805,0 2.913,1.304195 2.913,2.913001 z"
       style="fill:#FFFFFF;fill-opacity:1"
       transform="matrix(1.2525331,0,0,1.2506151,-8.9061465,-8.6384678)" /></g></svg>